SplineFontDB: 3.0
FontName: font
FullName: font
FamilyName: font
Weight: Regular
Copyright: 
Version: 1.01
ItalicAngle: 0
UnderlinePosition: -100
UnderlineWidth: 50
Ascent: 756
Descent: 244
InvalidEm: 0
sfntRevision: 0x0001028f
LayerCount: 2
Layer: 0 1 "Back" 1
Layer: 1 1 "Fore" 0
XUID: [1021 518 370446175 8585335]
StyleMap: 0x0040
FSType: 8
OS2Version: 3
OS2_WeightWidthSlopeOnly: 0
OS2_UseTypoMetrics: 0
CreationTime: 1077197684
ModificationTime: 1492497463
PfmFamily: 17
TTFWeight: 400
TTFWidth: 5
LineGap: 0
VLineGap: 0
Panose: 2 11 5 3 2 2 2 2 2 4
OS2TypoAscent: 756
OS2TypoAOffset: 0
OS2TypoDescent: -244
OS2TypoDOffset: 0
OS2TypoLinegap: 200
OS2WinAscent: 945
OS2WinAOffset: 0
OS2WinDescent: 240
OS2WinDOffset: 0
HheadAscent: 945
HheadAOffset: 0
HheadDescent: -240
HheadDOffset: 0
OS2SubXSize: 700
OS2SubYSize: 650
OS2SubXOff: 0
OS2SubYOff: 140
OS2SupXSize: 700
OS2SupYSize: 650
OS2SupXOff: 0
OS2SupYOff: 477
OS2StrikeYSize: 50
OS2StrikeYPos: 250
OS2CapHeight: 708
OS2XHeight: 468
OS2Vendor: 'LINO'
OS2CodePages: 00000001.00000000
OS2UnicodeRanges: 8000002f.1000000a.00000000.00000000
Lookup: 258 0 0 "'kern' Horizontal Kerning in Latin lookup 0" { "'kern' Horizontal Kerning in Latin lookup 0 subtable"  } ['kern' ('DFLT' <'dflt' > 'latn' <'dflt' > ) ]
MarkAttachClasses: 1
DEI: 91125
TtTable: prep
PUSHW_1
 0
CALL
SVTCA[y-axis]
PUSHW_3
 1
 6
 2
CALL
SVTCA[x-axis]
PUSHW_3
 7
 9
 2
CALL
SVTCA[x-axis]
PUSHW_7
 7
 77
 63
 49
 35
 21
 8
CALL
PUSHW_7
 8
 58
 47
 33
 35
 21
 8
CALL
PUSHW_7
 9
 110
 90
 70
 50
 30
 8
CALL
PUSHW_7
 10
 51
 42
 33
 24
 14
 8
CALL
PUSHW_7
 11
 153
 125
 98
 70
 42
 8
CALL
PUSHW_7
 12
 92
 75
 59
 42
 25
 8
CALL
PUSHW_7
 13
 81
 67
 52
 37
 23
 8
CALL
PUSHW_7
 14
 91
 74
 58
 42
 27
 8
CALL
PUSHW_7
 15
 40
 33
 25
 18
 11
 8
CALL
SVTCA[y-axis]
PUSHW_7
 1
 91
 74
 58
 42
 27
 8
CALL
PUSHW_7
 2
 110
 90
 70
 50
 30
 8
CALL
PUSHW_7
 3
 58
 47
 33
 27
 16
 8
CALL
PUSHW_7
 4
 51
 42
 33
 24
 14
 8
CALL
PUSHW_7
 5
 153
 125
 98
 70
 42
 8
CALL
PUSHW_7
 6
 81

StartChar: asterisk
Encoding: 42 42 1
Width: 444
GlyphClass: 2
Flags: W
LayerCount: 2
Fore
SplineSet
252 565 m 1,0,-1
 392 610 l 1,1,-1
 413 554 l 1,2,-1
 272 509 l 1,3,-1
 362 388 l 1,4,-1
 314 352 l 1,5,-1
 222 476 l 1,6,-1
 130 352 l 1,7,-1
 82 388 l 1,8,-1
 172 509 l 1,9,-1
 31 554 l 1,10,-1
 52 610 l 1,11,-1
 192 565 l 1,12,-1
 192 708 l 1,13,-1
 252 708 l 1,14,-1
 252 565 l 1,0,-1
EndSplineSet
Validated: 1
EndChar

StartChar: plus
Encoding: 43 43 2
Width: 666
GlyphClass: 2
Flags: W
LayerCount: 2
Fore
SplineSet
363 333 m 1,0,-1
 588 333 l 1,1,-1
 588 273 l 1,2,-1
 363 273 l 1,3,-1
 363 48 l 1,4,-1
 303 48 l 1,5,-1
 303 273 l 1,6,-1
 78 273 l 1,7,-1
 78 333 l 1,8,-1
 303 333 l 1,9,-1
 303 558 l 1,10,-1
 363 558 l 1,11,-1
 363 333 l 1,0,-1
EndSplineSet
Validated: 1
EndChar

StartChar: hyphen
Encoding: 45 45 3
Width: 320
GlyphClass: 2
Flags: W
LayerCount: 2
Fore
SplineSet
272 214 m 1,0,-1
 48 214 l 1,1,-1
 48 271 l 1,2,-1
 272 271 l 1,3,-1
 272 214 l 1,0,-1
EndSplineSet
Validated: 1
EndChar

StartChar: period
Encoding: 46 46 4
Width: 260
GlyphClass: 2
Flags: W
LayerCount: 2
Fore
SplineSet
184 48 m 256,0,1
 184 27 184 27 169 10.5 c 128,-1,2
 154 -6 154 -6 130 -6 c 256,3,4
 106 -6 106 -6 91 10.5 c 128,-1,5
 76 27 76 27 76 48 c 256,6,7
 76 69 76 69 91 85.5 c 128,-1,8
 106 102 106 102 130 102 c 256,9,10
 154 102 154 102 169 85.5 c 128,-1,11
 184 69 184 69 184 48 c 256,0,1
EndSplineSet
Validated: 1
EndChar

StartChar: zero
Encoding: 48 48 5
Width: 580
GlyphClass: 2
Flags: W
LayerCount: 2
Fore
SplineSet
290 726 m 0,0,1
 356 726 356 726 400.5 693.5 c 128,-1,2
 445 661 445 661 472 608.5 c 128,-1,3
 499 556 499 556 510.5 489 c 128,-1,4
 522 422 522 422 522 353 c 256,5,6
 522 284 522 284 510.5 217.5 c 128,-1,7
 499 151 499 151 472 98.5 c 128,-1,8
 445 46 445 46 400.5 14 c 128,-1,9
 356 -18 356 -18 290 -18 c 0,10,11
 223 -18 223 -18 178.5 14 c 128,-1,12
 134 46 134 46 107 98.5 c 128,-1,13
 80 151 80 151 69 217.5 c 128,-1,14
 58 284 58 284 58 353 c 256,15,16
 58 422 58 422 69 489 c 128,-1,17
 80 556 80 556 107 608.5 c 128,-1,18
 134 661 134 661 178.5 693.5 c 128,-1,19
 223 726 223 726 290 726 c 0,0,1
290 665 m 0,20,21
 243 665 243 665 212 636 c 128,-1,22
 181 607 181 607 163 562 c 128,-1,23
 145 517 145 517 138 461.5 c 128,-1,24
 131 406 131 406 131 353 c 256,25,26
 131 300 131 300 138 245 c 128,-1,27
 145 190 145 190 163 145.5 c 128,-1,28
 181 101 181 101 212 72.5 c 128,-1,29
 243 44 243 44 290 44 c 0,30,31
 336 44 336 44 367 72.5 c 128,-1,32
 398 101 398 101 416 145.5 c 128,-1,33
 434 190 434 190 441.5 245 c 128,-1,34
 449 300 449 300 449 353 c 256,35,36
 449 406 449 406 441.5 461.5 c 128,-1,37
 434 517 434 517 416 562 c 128,-1,38
 398 607 398 607 367 636 c 128,-1,39
 336 665 336 665 290 665 c 0,20,21
EndSplineSet
Validated: 1
EndChar

StartChar: one
Encoding: 49 49 6
Width: 580
GlyphClass: 2
Flags: W
LayerCount: 2
Fore
SplineSet
358 0 m 1,0,-1
 286 0 l 1,1,-1
 286 612 l 1,2,-1
 158 484 l 1,3,-1
 114 528 l 1,4,-1
 294 708 l 1,5,-1
 358 708 l 1,6,-1
 358 0 l 1,0,-1
EndSplineSet
Validated: 1
EndChar

StartChar: two
Encoding: 50 50 7
Width: 580
GlyphClass: 2
Flags: W
LayerCount: 2
Fore
SplineSet
504 0 m 1,0,-1
 51 0 l 1,1,-1
 51 75 l 1,2,-1
 341 368 l 2,3,4
 357 384 357 384 372.5 402.5 c 128,-1,6
 388 421 388 421 400 441 c 128,-1,7
 412 461 412 461 419 483.5 c 128,-1,8
 426 506 426 506 426 530 c 0,9,10
 426 561 426 561 415 586 c 128,-1,11
 404 611 404 611 384.5 628.5 c 128,-1,12
 365 646 365 646 339.5 655.5 c 128,-1,13
 314 665 314 665 286 665 c 0,14,15
 229 665 229 665 190 629.5 c 128,-1,16
 151 594 151 594 140 539 c 1,17,-1
 69 539 l 5,18,19
 76 576 76 576 95.5 615 c 128,-1,20
 115 654 115 654 143.5 677 c 128,-1,21
 172 700 172 700 208 713 c 128,-1,22
 244 726 244 726 286 726 c 0,23,24
 329 726 329 726 367.5 713.5 c 128,-1,25
 406 701 406 701 435 676.5 c 128,-1,26
 464 652 464 652 481.5 615.5 c 128,-1,27
 499 579 499 579 499 531 c 0,28,29
 499 497 499 497 489.5 468 c 128,-1,30
 480 439 480 439 464.5 413 c 0,31,32
 454 395 454 395 428 363.5 c 0,33,34
 412.737791134 345.512396694 412.737791134 345.512396694 384 317 c 2,35,-1
 129 64 l 1,36,-1
 504 64 l 1,37,-1
 504 0 l 1,0,-1
EndSplineSet
Validated: 524289
EndChar

StartChar: three
Encoding: 51 51 8
Width: 580
GlyphClass: 2
Flags: W
LayerCount: 2
Fore
SplineSet
214 402 m 1,0,-1
 245 402 l 2,1,2
 279 402 279 402 309 409 c 128,-1,3
 339 416 339 416 361.5 431.5 c 128,-1,4
 384 447 384 447 397 472 c 128,-1,5
 410 497 410 497 410 532 c 0,6,7
 410 562 410 562 399 586.5 c 128,-1,8
 388 611 388 611 368.5 628.5 c 128,-1,9
 349 646 349 646 323.5 655.5 c 128,-1,10
 298 665 298 665 270 665 c 0,11,12
 225 665 225 665 190.5 644 c 128,-1,13
 156 623 156 623 135 582 c 1,14,-1
 74 614 l 1,15,16
 107 671 107 671 158 698.5 c 128,-1,17
 209 726 209 726 274 726 c 0,18,19
 316 726 316 726 353.5 713.5 c 128,-1,20
 391 701 391 701 419.5 677 c 128,-1,21
 448 653 448 653 464.5 617.5 c 128,-1,22
 481 582 481 582 481 536 c 0,23,24
 481 473 481 473 446 430.5 c 128,-1,25
 411 388 411 388 358 374 c 1,26,-1
 358 372 l 1,27,28
 419 359 419 359 460 313.5 c 128,-1,29
 501 268 501 268 501 196 c 0,30,31
 501 145 501 145 482.5 105.5 c 128,-1,32
 464 66 464 66 433 38.5 c 128,-1,33
 402 11 402 11 360.5 -3.5 c 128,-1,34
 319 -18 319 -18 273 -18 c 0,35,36
 195 -18 195 -18 137 19.5 c 128,-1,37
 79 57 79 57 49 127 c 1,38,-1
 117 152 l 1,39,40
 135 101 135 101 177 72.5 c 128,-1,41
 219 44 219 44 273 44 c 0,42,43
 303 44 303 44 331.5 54.5 c 128,-1,44
 360 65 360 65 381.5 84.5 c 128,-1,45
 403 104 403 104 416 132 c 128,-1,46
 429 160 429 160 429 196 c 0,47,48
 429 236 429 236 413.5 263.5 c 128,-1,49
 398 291 398 291 372 308 c 128,-1,50
 346 325 346 325 313 332.5 c 128,-1,51
 280 340 280 340 245 340 c 2,52,-1
 214 340 l 1,53,-1
 214 402 l 1,0,-1
EndSplineSet
Validated: 1
EndChar

StartChar: four
Encoding: 52 52 9
Width: 580
GlyphClass: 2
Flags: W
LayerCount: 2
Fore
SplineSet
436 234 m 1,0,-1
 540 234 l 1,1,-1
 540 171 l 1,2,-1
 436 171 l 1,3,-1
 436 0 l 1,4,-1
 366 0 l 1,5,-1
 366 171 l 1,6,-1
 42 171 l 1,7,-1
 42 258 l 1,8,-1
 342 708 l 1,9,-1
 436 708 l 1,10,-1
 436 234 l 1,0,-1
366 612 m 1,11,-1
 364 612 l 1,12,-1
 110 234 l 1,13,-1
 366 234 l 1,14,-1
 366 612 l 1,11,-1
EndSplineSet
Validated: 1
EndChar

StartChar: five
Encoding: 53 53 10
Width: 580
GlyphClass: 2
Flags: W
LayerCount: 2
Fore
SplineSet
475 644 m 1,0,-1
 175 644 l 1,1,-1
 175 425 l 1,2,3
 198 433 198 433 223.5 437 c 128,-1,4
 249 441 249 441 273 441 c 0,5,6
 323 441 323 441 365 425 c 128,-1,7
 407 409 407 409 438 379.5 c 128,-1,8
 469 350 469 350 486 309 c 128,-1,9
 503 268 503 268 503 219 c 0,10,11
 503 168 503 168 486 124.5 c 128,-1,12
 469 81 469 81 438 49.5 c 128,-1,13
 407 18 407 18 363.5 0 c 128,-1,14
 320 -18 320 -18 268 -18 c 0,15,16
 191 -18 191 -18 138 17 c 128,-1,17
 85 52 85 52 56 111 c 1,18,-1
 121 140 l 1,19,20
 140 96 140 96 178.5 70 c 128,-1,21
 217 44 217 44 264 44 c 0,22,23
 300 44 300 44 330.5 56.5 c 128,-1,24
 361 69 361 69 383 91.5 c 128,-1,25
 405 114 405 114 417.5 145 c 128,-1,26
 430 176 430 176 430 212 c 0,27,28
 430 251 430 251 416.5 282.5 c 128,-1,29
 403 314 403 314 379.5 336 c 128,-1,30
 356 358 356 358 324 370 c 128,-1,31
 292 382 292 382 254 382 c 256,32,33
 216 382 216 382 178.5 371.5 c 128,-1,34
 141 361 141 361 107 343 c 1,35,-1
 107 708 l 1,36,-1
 475 708 l 1,37,-1
 475 644 l 1,0,-1
EndSplineSet
Validated: 1
EndChar

StartChar: six
Encoding: 54 54 11
Width: 580
GlyphClass: 2
Flags: W
LayerCount: 2
Fore
SplineSet
201 399 m 1,0,-1
 203 397 l 1,1,2
 219 409 219 409 248 416 c 128,-1,3
 277 423 277 423 304 423 c 0,4,5
 350 423 350 423 389.5 407 c 128,-1,6
 429 391 429 391 458 362.5 c 128,-1,7
 487 334 487 334 503.5 293.5 c 128,-1,8
 520 253 520 253 520 205 c 0,9,10
 520 155 520 155 503 114 c 128,-1,11
 486 73 486 73 455 44 c 128,-1,12
 424 15 424 15 382 -1.5 c 128,-1,13
 340 -18 340 -18 290 -18 c 256,14,15
 240 -18 240 -18 198 -1.5 c 128,-1,16
 156 15 156 15 125 44 c 128,-1,17
 94 73 94 73 77 114 c 128,-1,18
 60 155 60 155 60 205 c 0,19,20
 60 260 60 260 79 307 c 128,-1,21
 98 354 98 354 124 397 c 2,22,-1
 317 708 l 1,23,-1
 400 708 l 1,24,-1
 201 399 l 1,0,-1
132 205 m 0,25,26
 132 170 132 170 143.5 140.5 c 128,-1,27
 155 111 155 111 176 89.5 c 128,-1,28
 197 68 197 68 226 55.5 c 128,-1,29
 255 43 255 43 290 43 c 256,30,31
 325 43 325 43 354 55.5 c 128,-1,32
 383 68 383 68 404 89.5 c 128,-1,33
 425 111 425 111 436.5 140.5 c 128,-1,34
 448 170 448 170 448 205 c 0,35,36
 448 239 448 239 437 268.5 c 128,-1,37
 426 298 426 298 405.5 319.5 c 128,-1,38
 385 341 385 341 355.5 353 c 128,-1,39
 326 365 326 365 290 365 c 256,40,41
 254 365 254 365 224.5 353 c 128,-1,42
 195 341 195 341 174.5 319.5 c 128,-1,43
 154 298 154 298 143 268.5 c 128,-1,44
 132 239 132 239 132 205 c 0,25,26
EndSplineSet
Validated: 1
EndChar

StartChar: seven
Encoding: 55 55 12
Width: 580
GlyphClass: 2
Flags: W
LayerCount: 2
Fore
SplineSet
498 642 m 1,0,-1
 181 0 l 5,1,-1
 100 0 l 5,2,-1
 425 644 l 1,3,-1
 78 644 l 1,4,-1
 78 708 l 1,5,-1
 498 708 l 1,6,-1
 498 642 l 1,0,-1
EndSplineSet
Validated: 1
EndChar

StartChar: eight
Encoding: 56 56 13
Width: 580
GlyphClass: 2
Flags: W
LayerCount: 2
Fore
SplineSet
383 375 m 1,0,1
 441 358 441 358 479 308 c 128,-1,2
 517 258 517 258 517 186 c 0,3,4
 517 139 517 139 498.5 101.5 c 128,-1,5
 480 64 480 64 449 37.5 c 128,-1,6
 418 11 418 11 376.5 -3.5 c 128,-1,7
 335 -18 335 -18 290 -18 c 256,8,9
 245 -18 245 -18 203.5 -3.5 c 128,-1,10
 162 11 162 11 131 37.5 c 128,-1,11
 100 64 100 64 81.5 101.5 c 128,-1,12
 63 139 63 139 63 186 c 0,13,14
 63 222 63 222 73 252.5 c 128,-1,15
 83 283 83 283 101 307.5 c 128,-1,16
 119 332 119 332 143.5 349 c 128,-1,17
 168 366 168 366 197 375 c 1,18,-1
 197 377 l 1,19,20
 173 385 173 385 153.5 400.5 c 128,-1,21
 134 416 134 416 120 437.5 c 128,-1,22
 106 459 106 459 98 484.5 c 128,-1,23
 90 510 90 510 90 537 c 0,24,25
 90 580 90 580 106 615 c 128,-1,26
 122 650 122 650 149.5 674.5 c 128,-1,27
 177 699 177 699 213 712.5 c 128,-1,28
 249 726 249 726 290 726 c 0,29,30
 330 726 330 726 366.5 712.5 c 128,-1,31
 403 699 403 699 430.5 674.5 c 128,-1,32
 458 650 458 650 474 615 c 128,-1,33
 490 580 490 580 490 537 c 0,34,35
 490 510 490 510 482 484.5 c 128,-1,36
 474 459 474 459 460 437.5 c 128,-1,37
 446 416 446 416 426.5 400.5 c 128,-1,38
 407 385 407 385 383 377 c 1,39,-1
 383 375 l 1,0,1
160 533 m 256,40,41
 160 505 160 505 170 482 c 128,-1,42
 180 459 180 459 198 442 c 128,-1,43
 216 425 216 425 239.5 415.5 c 128,-1,44
 263 406 263 406 290 406 c 256,45,46
 317 406 317 406 340.5 415.5 c 128,-1,47
 364 425 364 425 382 442 c 128,-1,48
 400 459 400 459 410 482 c 128,-1,49
 420 505 420 505 420 533 c 256,50,51
 420 561 420 561 410 585.5 c 128,-1,52
 400 610 400 610 382.5 627.5 c 128,-1,53
 365 645 365 645 341.5 655 c 128,-1,54
 318 665 318 665 290 665 c 256,55,56
 262 665 262 665 238.5 655 c 128,-1,57
 215 645 215 645 197.5 627.5 c 128,-1,58
 180 610 180 610 170 585.5 c 128,-1,59
 160 561 160 561 160 533 c 256,40,41
135 194 m 256,60,61
 135 162 135 162 146 134 c 128,-1,62
 157 106 157 106 177.5 86 c 128,-1,63
 198 66 198 66 226.5 54.5 c 128,-1,64
 255 43 255 43 290 43 c 256,65,66
 325 43 325 43 353.5 54.5 c 128,-1,67
 382 66 382 66 402.5 86 c 128,-1,68
 423 106 423 106 434 134 c 128,-1,69
 445 162 445 162 445 194 c 256,70,71
 445 226 445 226 434 253 c 128,-1,72
 423 280 423 280 402.5 300 c 128,-1,73
 382 320 382 320 353.5 331 c 128,-1,74
 325 342 325 342 290 342 c 256,75,76
 255 342 255 342 226.5 331 c 128,-1,77
 198 320 198 320 177.5 300 c 128,-1,78
 157 280 157 280 146 253 c 128,-1,79
 135 226 135 226 135 194 c 256,60,61
EndSplineSet
Validated: 1
EndChar

StartChar: nine
Encoding: 57 57 14
Width: 580
GlyphClass: 2
Flags: W
LayerCount: 2
Fore
SplineSet
381 309 m 1,0,-1
 379 311 l 1,1,2
 363 299 363 299 334 292 c 128,-1,3
 305 285 305 285 278 285 c 0,4,5
 232 285 232 285 192.5 301 c 128,-1,6
 153 317 153 317 124 345.5 c 128,-1,7
 95 374 95 374 78.5 414.5 c 128,-1,8
 62 455 62 455 62 503 c 0,9,10
 62 552 62 552 79 593.5 c 128,-1,11
 96 635 96 635 127 664 c 128,-1,12
 158 693 158 693 200 709.5 c 128,-1,13
 242 726 242 726 292 726 c 256,14,15
 342 726 342 726 384 709.5 c 128,-1,16
 426 693 426 693 457 664 c 128,-1,17
 488 635 488 635 505 593.5 c 128,-1,18
 522 552 522 552 522 503 c 0,19,20
 522 448 522 448 503 401 c 128,-1,21
 484 354 484 354 458 311 c 2,22,-1
 265 0 l 1,23,-1
 182 0 l 1,24,-1
 381 309 l 1,0,-1
450 503 m 256,25,26
 450 537 450 537 438.5 567 c 128,-1,27
 427 597 427 597 406 618.5 c 128,-1,28
 385 640 385 640 356 652.5 c 128,-1,29
 327 665 327 665 292 665 c 256,30,31
 257 665 257 665 228 652.5 c 128,-1,32
 199 640 199 640 178 618.5 c 128,-1,33
 157 597 157 597 145.5 567 c 128,-1,34
 134 537 134 537 134 503 c 256,35,36
 134 469 134 469 145 439.5 c 128,-1,37
 156 410 156 410 176.5 388.5 c 128,-1,38
 197 367 197 367 226.5 355 c 128,-1,39
 256 343 256 343 292 343 c 256,40,41
 328 343 328 343 357.5 355 c 128,-1,42
 387 367 387 367 407.5 388.5 c 128,-1,43
 428 410 428 410 439 439.5 c 128,-1,44
 450 469 450 469 450 503 c 256,25,26
EndSplineSet
Validated: 1
EndChar

StartChar: colon
Encoding: 58 58 15
Width: 300
GlyphClass: 2
Flags: W
LayerCount: 2
Fore
SplineSet
204 420 m 256,0,1
 204 399 204 399 189 382.5 c 128,-1,2
 174 366 174 366 150 366 c 256,3,4
 126 366 126 366 111 382.5 c 128,-1,5
 96 399 96 399 96 420 c 256,6,7
 96 441 96 441 111 457.5 c 128,-1,8
 126 474 126 474 150 474 c 256,9,10
 174 474 174 474 189 457.5 c 128,-1,11
 204 441 204 441 204 420 c 256,0,1
204 48 m 256,12,13
 204 27 204 27 189 10.5 c 128,-1,14
 174 -6 174 -6 150 -6 c 256,15,16
 126 -6 126 -6 111 10.5 c 128,-1,17
 96 27 96 27 96 48 c 256,18,19
 96 69 96 69 111 85.5 c 128,-1,20
 126 102 126 102 150 102 c 256,21,22
 174 102 174 102 189 85.5 c 128,-1,23
 204 69 204 69 204 48 c 256,12,13
EndSplineSet
Validated: 1
EndChar

StartChar: A
Encoding: 65 65 16
Width: 700
GlyphClass: 2
Flags: W
LayerCount: 2
Fore
SplineSet
89 0 m 1,0,-1
 10 0 l 1,1,-1
 316 708 l 1,2,-1
 386 708 l 1,3,-1
 690 0 l 1,4,-1
 610 0 l 1,5,-1
 532 186 l 1,6,-1
 166 186 l 1,7,-1
 89 0 l 1,0,-1
193 252 m 1,8,-1
 505 252 l 1,9,-1
 349 628 l 1,10,-1
 193 252 l 1,8,-1
EndSplineSet
Validated: 1
EndChar

StartChar: B
Encoding: 66 66 17
Width: 636
GlyphClass: 2
Flags: W
LayerCount: 2
Fore
SplineSet
94 708 m 1,0,-1
 305 708 l 2,1,2
 345 708 345 708 386 699.5 c 128,-1,3
 427 691 427 691 459.5 670.5 c 128,-1,4
 492 650 492 650 512.5 615 c 128,-1,5
 533 580 533 580 533 527 c 0,6,7
 533 471 533 471 499 429.5 c 128,-1,8
 465 388 465 388 408 375 c 1,9,-1
 408 373 l 1,10,11
 477 365 477 365 522.5 319.5 c 128,-1,12
 568 274 568 274 568 196 c 0,13,14
 568 152 568 152 549.5 115.5 c 128,-1,15
 531 79 531 79 497 53.5 c 128,-1,16
 463 28 463 28 414 14 c 128,-1,17
 365 0 365 0 304 0 c 2,18,-1
 94 0 l 1,19,-1
 94 708 l 1,0,-1
166 398 m 1,20,-1
 311 398 l 2,21,22
 337 398 337 398 363.5 404 c 128,-1,23
 390 410 390 410 412 424.5 c 128,-1,24
 434 439 434 439 447.5 463 c 128,-1,25
 461 487 461 487 461 522 c 0,26,27
 461 556 461 556 447.5 579.5 c 128,-1,28
 434 603 434 603 411 618 c 128,-1,29
 388 633 388 633 357 639.5 c 128,-1,30
 326 646 326 646 291 646 c 2,31,-1
 166 646 l 1,32,-1
 166 398 l 1,20,-1
166 62 m 1,33,-1
 300 62 l 2,34,35
 339 62 339 62 374.5 69.5 c 128,-1,36
 410 77 410 77 436.5 93.5 c 128,-1,37
 463 110 463 110 479 136.5 c 128,-1,38
 495 163 495 163 495 200 c 0,39,40
 495 270 495 270 447.5 304.5 c 128,-1,41
 400 339 400 339 313 339 c 2,42,-1
 166 339 l 1,43,-1
 166 62 l 1,33,-1
EndSplineSet
Validated: 1
EndChar

StartChar: C
Encoding: 67 67 18
Width: 720
GlyphClass: 2
Flags: W
LayerCount: 2
Fore
SplineSet
690 114 m 1,0,1
 672 87 672 87 646.5 63 c 128,-1,2
 621 39 621 39 587.5 21 c 128,-1,3
 554 3 554 3 513.5 -7.5 c 128,-1,4
 473 -18 473 -18 425 -18 c 0,5,6
 345 -18 345 -18 277 10 c 128,-1,7
 209 38 209 38 160 87.5 c 128,-1,8
 111 137 111 137 83.5 205 c 128,-1,9
 56 273 56 273 56 354 c 256,10,11
 56 435 56 435 84 503 c 128,-1,12
 112 571 112 571 161.5 620.5 c 128,-1,13
 211 670 211 670 278.5 698 c 128,-1,14
 346 726 346 726 425 726 c 0,15,16
 464 726 464 726 501.5 718 c 128,-1,17
 539 710 539 710 572 695.5 c 128,-1,18
 605 681 605 681 632 660.5 c 128,-1,19
 659 640 659 640 677 614 c 1,20,-1
 617 570 l 1,21,22
 606 587 606 587 587.5 604 c 128,-1,23
 569 621 569 621 544 634 c 128,-1,24
 519 647 519 647 489.5 655 c 128,-1,25
 460 663 460 663 426 663 c 0,26,27
 357 663 357 663 302.5 638 c 128,-1,28
 248 613 248 613 210 570.5 c 128,-1,29
 172 528 172 528 152 472 c 128,-1,30
 132 416 132 416 132 354 c 256,31,32
 132 292 132 292 152.5 236 c 128,-1,33
 173 180 173 180 211 137.5 c 128,-1,34
 249 95 249 95 303.5 70 c 128,-1,35
 358 45 358 45 426 45 c 0,36,37
 487 45 487 45 542 70 c 128,-1,38
 597 95 597 95 634 150 c 1,39,-1
 690 114 l 1,0,1
EndSplineSet
Validated: 1
EndChar

StartChar: D
Encoding: 68 68 19
Width: 757
GlyphClass: 2
Flags: W
LayerCount: 2
Fore
SplineSet
94 708 m 1,0,-1
 329 708 l 2,1,2
 395 708 395 708 461.5 686 c 128,-1,3
 528 664 528 664 581.5 619.5 c 128,-1,4
 635 575 635 575 668 508.5 c 128,-1,5
 701 442 701 442 701 354 c 0,6,7
 701 265 701 265 668 199 c 128,-1,8
 635 133 635 133 581.5 88.5 c 128,-1,9
 528 44 528 44 461.5 22 c 128,-1,10
 395 0 395 0 329 0 c 2,11,-1
 94 0 l 1,12,-1
 94 708 l 1,0,-1
166 64 m 1,13,-1
 309 64 l 2,14,15
 389 64 389 64 448.5 89 c 128,-1,16
 508 114 508 114 547 154.5 c 128,-1,17
 586 195 586 195 605.5 247 c 128,-1,18
 625 299 625 299 625 354 c 256,19,20
 625 409 625 409 605.5 461 c 128,-1,21
 586 513 586 513 547 553.5 c 128,-1,22
 508 594 508 594 448.5 619 c 128,-1,23
 389 644 389 644 309 644 c 2,24,-1
 166 644 l 1,25,-1
 166 64 l 1,13,-1
EndSplineSet
Validated: 1
EndChar

StartChar: E
Encoding: 69 69 20
Width: 592
GlyphClass: 2
Flags: W
LayerCount: 2
Fore
SplineSet
166 64 m 1,0,-1
 545 64 l 1,1,-1
 545 0 l 1,2,-1
 94 0 l 1,3,-1
 94 708 l 1,4,-1
 533 708 l 1,5,-1
 533 644 l 1,6,-1
 166 644 l 1,7,-1
 166 400 l 1,8,-1
 509 400 l 1,9,-1
 509 337 l 1,10,-1
 166 337 l 1,11,-1
 166 64 l 1,0,-1
EndSplineSet
Validated: 1
EndChar

StartChar: F
Encoding: 70 70 21
Width: 562
GlyphClass: 2
Flags: W
LayerCount: 2
Fore
SplineSet
166 0 m 1,0,-1
 94 0 l 1,1,-1
 94 708 l 1,2,-1
 521 708 l 1,3,-1
 521 644 l 1,4,-1
 166 644 l 1,5,-1
 166 398 l 1,6,-1
 496 398 l 1,7,-1
 496 335 l 1,8,-1
 166 335 l 1,9,-1
 166 0 l 1,0,-1
EndSplineSet
Validated: 1
EndChar

StartChar: G
Encoding: 71 71 22
Width: 779
GlyphClass: 2
Flags: W
LayerCount: 2
Fore
SplineSet
631 581 m 1,0,1
 594 620 594 620 543 641.5 c 128,-1,2
 492 663 492 663 426 663 c 0,3,4
 358 663 358 663 303.5 638 c 128,-1,5
 249 613 249 613 211 570.5 c 128,-1,6
 173 528 173 528 152.5 472 c 128,-1,7
 132 416 132 416 132 354 c 256,8,9
 132 292 132 292 152.5 236 c 128,-1,10
 173 180 173 180 211 138 c 128,-1,11
 249 96 249 96 303.5 71 c 128,-1,12
 358 46 358 46 426 46 c 0,13,14
 486 46 486 46 536 59 c 128,-1,15
 586 72 586 72 617 92 c 1,16,-1
 617 307 l 1,17,-1
 452 307 l 1,18,-1
 452 370 l 1,19,-1
 689 370 l 1,20,-1
 689 51 l 1,21,22
 631 16 631 16 564 -1 c 128,-1,23
 497 -18 497 -18 425 -18 c 0,24,25
 345 -18 345 -18 277 10 c 128,-1,26
 209 38 209 38 160 87.5 c 128,-1,27
 111 137 111 137 83.5 205 c 128,-1,28
 56 273 56 273 56 354 c 256,29,30
 56 435 56 435 84 503 c 128,-1,31
 112 571 112 571 161.5 620.5 c 128,-1,32
 211 670 211 670 278.5 698 c 128,-1,33
 346 726 346 726 425 726 c 0,34,35
 510 726 510 726 573 701 c 128,-1,36
 636 676 636 676 681 631 c 1,37,-1
 631 581 l 1,0,1
EndSplineSet
Validated: 1
EndChar

StartChar: H
Encoding: 72 72 23
Width: 718
GlyphClass: 2
Flags: W
LayerCount: 2
Fore
SplineSet
94 708 m 1,0,-1
 166 708 l 1,1,-1
 166 401 l 1,2,-1
 552 401 l 1,3,-1
 552 708 l 1,4,-1
 624 708 l 1,5,-1
 624 0 l 1,6,-1
 552 0 l 1,7,-1
 552 335 l 1,8,-1
 166 335 l 1,9,-1
 166 0 l 1,10,-1
 94 0 l 1,11,-1
 94 708 l 1,0,-1
EndSplineSet
Validated: 1
EndChar

StartChar: I
Encoding: 73 73 24
Width: 260
GlyphClass: 2
Flags: W
LayerCount: 2
Fore
SplineSet
166 0 m 1,0,-1
 94 0 l 1,1,-1
 94 708 l 1,2,-1
 166 708 l 1,3,-1
 166 0 l 1,0,-1
EndSplineSet
Validated: 1
EndChar

StartChar: J
Encoding: 74 74 25
Width: 492
GlyphClass: 2
Flags: W
LayerCount: 2
Fore
SplineSet
92 144 m 1,0,1
 100 102 100 102 129.5 73.5 c 128,-1,2
 159 45 159 45 207 45 c 0,3,4
 244 45 244 45 268 58.5 c 128,-1,5
 292 72 292 72 306.5 95 c 128,-1,6
 321 118 321 118 326.5 147.5 c 128,-1,7
 332 177 332 177 332 209 c 2,8,-1
 332 708 l 1,9,-1
 404 708 l 1,10,-1
 404 204 l 2,11,12
 404 169 404 169 396.5 130 c 128,-1,13
 389 91 389 91 368 58 c 128,-1,14
 347 25 347 25 310 3.5 c 128,-1,15
 273 -18 273 -18 215 -18 c 0,16,17
 138 -18 138 -18 88 22.5 c 128,-1,18
 38 63 38 63 25 126 c 1,19,-1
 92 144 l 1,0,1
EndSplineSet
Validated: 1
EndChar

StartChar: K
Encoding: 75 75 26
Width: 628
GlyphClass: 2
Flags: W
LayerCount: 2
Fore
SplineSet
166 390 m 1,0,-1
 167 390 l 1,1,-1
 504 708 l 1,2,-1
 607 708 l 1,3,-1
 250 387 l 1,4,-1
 627 0 l 1,5,-1
 521 0 l 1,6,-1
 167 377 l 1,7,-1
 166 377 l 1,8,-1
 166 0 l 1,9,-1
 94 0 l 1,10,-1
 94 708 l 1,11,-1
 166 708 l 1,12,-1
 166 390 l 1,0,-1
EndSplineSet
Validated: 1
EndChar

StartChar: L
Encoding: 76 76 27
Width: 510
GlyphClass: 2
Flags: W
LayerCount: 2
Fore
SplineSet
166 64 m 1,0,-1
 496 64 l 1,1,-1
 496 0 l 1,2,-1
 94 0 l 1,3,-1
 94 708 l 1,4,-1
 166 708 l 1,5,-1
 166 64 l 1,0,-1
EndSplineSet
Validated: 1
EndChar

StartChar: M
Encoding: 77 77 28
Width: 886
GlyphClass: 2
Flags: W
LayerCount: 2
Fore
SplineSet
444 122 m 1,0,-1
 445 122 l 1,1,-1
 682 708 l 1,2,-1
 792 708 l 1,3,-1
 792 0 l 1,4,-1
 720 0 l 1,5,-1
 720 615 l 1,6,-1
 718 615 l 1,7,-1
 462 0 l 1,8,-1
 424 0 l 1,9,-1
 168 615 l 1,10,-1
 166 615 l 1,11,-1
 166 0 l 1,12,-1
 94 0 l 1,13,-1
 94 708 l 1,14,-1
 204 708 l 1,15,-1
 444 122 l 1,0,-1
EndSplineSet
Validated: 1
EndChar

StartChar: N
Encoding: 78 78 29
Width: 764
GlyphClass: 2
Flags: W
LayerCount: 2
Fore
SplineSet
596 105 m 1,0,-1
 598 105 l 1,1,-1
 598 708 l 1,2,-1
 670 708 l 1,3,-1
 670 0 l 1,4,-1
 580 0 l 1,5,-1
 168 609 l 1,6,-1
 166 609 l 1,7,-1
 166 0 l 1,8,-1
 94 0 l 1,9,-1
 94 708 l 1,10,-1
 184 708 l 1,11,-1
 596 105 l 1,0,-1
EndSplineSet
Validated: 1
EndChar

StartChar: O
Encoding: 79 79 30
Width: 850
GlyphClass: 2
Flags: W
LayerCount: 2
Fore
SplineSet
794 354 m 256,0,1
 794 273 794 273 766 205 c 128,-1,2
 738 137 738 137 688.5 87.5 c 128,-1,3
 639 38 639 38 571.5 10 c 128,-1,4
 504 -18 504 -18 425 -18 c 256,5,6
 346 -18 346 -18 278.5 10 c 128,-1,7
 211 38 211 38 161.5 87.5 c 128,-1,8
 112 137 112 137 84 205 c 128,-1,9
 56 273 56 273 56 354 c 256,10,11
 56 435 56 435 84 503 c 128,-1,12
 112 571 112 571 161.5 620.5 c 128,-1,13
 211 670 211 670 278.5 698 c 128,-1,14
 346 726 346 726 425 726 c 256,15,16
 504 726 504 726 571.5 698 c 128,-1,17
 639 670 639 670 688.5 620.5 c 128,-1,18
 738 571 738 571 766 503 c 128,-1,19
 794 435 794 435 794 354 c 256,0,1
718 354 m 256,20,21
 718 416 718 416 698 472 c 128,-1,22
 678 528 678 528 640 570.5 c 128,-1,23
 602 613 602 613 547.5 638 c 128,-1,24
 493 663 493 663 425 663 c 256,25,26
 357 663 357 663 302.5 638 c 128,-1,27
 248 613 248 613 210 570.5 c 128,-1,28
 172 528 172 528 152 472 c 128,-1,29
 132 416 132 416 132 354 c 256,30,31
 132 292 132 292 152 236 c 128,-1,32
 172 180 172 180 210 138 c 128,-1,33
 248 96 248 96 302.5 71 c 128,-1,34
 357 46 357 46 425 46 c 256,35,36
 493 46 493 46 547.5 71 c 128,-1,37
 602 96 602 96 640 138 c 128,-1,38
 678 180 678 180 698 236 c 128,-1,39
 718 292 718 292 718 354 c 256,20,21
EndSplineSet
Validated: 1
EndChar

StartChar: P
Encoding: 80 80 31
Width: 580
GlyphClass: 2
Flags: W
LayerCount: 2
Fore
SplineSet
94 708 m 1,0,-1
 294 708 l 2,1,2
 348 708 348 708 392 696.5 c 128,-1,3
 436 685 436 685 467.5 661.5 c 128,-1,4
 499 638 499 638 516 602.5 c 128,-1,5
 533 567 533 567 533 519 c 256,6,7
 533 471 533 471 515.5 435.5 c 128,-1,8
 498 400 498 400 466.5 376.5 c 128,-1,9
 435 353 435 353 390.5 341 c 128,-1,10
 346 329 346 329 292 329 c 2,11,-1
 166 329 l 1,12,-1
 166 0 l 1,13,-1
 94 0 l 1,14,-1
 94 708 l 1,0,-1
166 390 m 1,15,-1
 288 390 l 2,16,17
 373 390 373 390 417 423 c 128,-1,18
 461 456 461 456 461 519 c 0,19,20
 461 585 461 585 415.5 615.5 c 128,-1,21
 370 646 370 646 288 646 c 2,22,-1
 166 646 l 1,23,-1
 166 390 l 1,15,-1
EndSplineSet
Validated: 1
EndChar

StartChar: Q
Encoding: 81 81 32
Width: 843
GlyphClass: 2
Flags: W
LayerCount: 2
Fore
SplineSet
132 363 m 256,0,1
 132 303 132 303 151.5 249 c 128,-1,2
 171 195 171 195 207 153.5 c 128,-1,3
 243 112 243 112 295.5 87.5 c 128,-1,4
 348 63 348 63 414 63 c 0,5,6
 479 63 479 63 531.5 87.5 c 128,-1,7
 584 112 584 112 620.5 153.5 c 128,-1,8
 657 195 657 195 677 249 c 128,-1,9
 697 303 697 303 697 363 c 256,10,11
 697 423 697 423 677 477 c 128,-1,12
 657 531 657 531 620.5 572.5 c 128,-1,13
 584 614 584 614 531.5 638.5 c 128,-1,14
 479 663 479 663 414 663 c 0,15,16
 348 663 348 663 295.5 638.5 c 128,-1,17
 243 614 243 614 207 572.5 c 128,-1,18
 171 531 171 531 151.5 477 c 128,-1,19
 132 423 132 423 132 363 c 256,0,1
819 0 m 1,20,-1
 414 0 l 2,21,22
 337 0 337 0 271.5 27 c 128,-1,23
 206 54 206 54 158 102.5 c 128,-1,24
 110 151 110 151 83 217.5 c 128,-1,25
 56 284 56 284 56 363 c 256,26,27
 56 442 56 442 83 508.5 c 128,-1,28
 110 575 110 575 158 623.5 c 128,-1,29
 206 672 206 672 271.5 699 c 128,-1,30
 337 726 337 726 414 726 c 0,31,32
 490 726 490 726 555.5 699 c 128,-1,33
 621 672 621 672 669 623.5 c 128,-1,34
 717 575 717 575 744 508.5 c 128,-1,35
 771 442 771 442 771 363 c 0,36,37
 771 269 771 269 729.5 191.5 c 128,-1,38
 688 114 688 114 605 66 c 1,39,-1
 605 64 l 1,40,-1
 819 64 l 1,41,-1
 819 0 l 1,20,-1
EndSplineSet
Validated: 1
EndChar

StartChar: R
Encoding: 82 82 33
Width: 599
GlyphClass: 2
Flags: W
LayerCount: 2
Fore
SplineSet
166 0 m 1,0,-1
 94 0 l 1,1,-1
 94 708 l 1,2,-1
 302 708 l 2,3,4
 354 708 354 708 398.5 698 c 128,-1,5
 443 688 443 688 475.5 665.5 c 128,-1,6
 508 643 508 643 526 607 c 128,-1,7
 544 571 544 571 544 519 c 0,8,9
 544 480 544 480 530 448 c 128,-1,10
 516 416 516 416 492 392.5 c 128,-1,11
 468 369 468 369 435 355 c 128,-1,12
 402 341 402 341 363 337 c 1,13,-1
 570 0 l 1,14,-1
 482 0 l 1,15,-1
 286 331 l 1,16,-1
 166 331 l 1,17,-1
 166 0 l 1,0,-1
166 393 m 1,18,-1
 291 393 l 2,19,20
 378 393 378 393 425 424.5 c 128,-1,21
 472 456 472 456 472 519 c 0,22,23
 472 554 472 554 459 578 c 128,-1,24
 446 602 446 602 423 617 c 128,-1,25
 400 632 400 632 367 639 c 128,-1,26
 334 646 334 646 294 646 c 2,27,-1
 166 646 l 1,28,-1
 166 393 l 1,18,-1
EndSplineSet
Validated: 1
EndChar

StartChar: S
Encoding: 83 83 34
Width: 564
GlyphClass: 2
Flags: W
LayerCount: 2
Fore
SplineSet
437 594 m 1,0,1
 414 626 414 626 378 645.5 c 128,-1,2
 342 665 342 665 291 665 c 0,3,4
 265 665 265 665 238 657 c 128,-1,5
 211 649 211 649 189 632.5 c 128,-1,6
 167 616 167 616 153.5 591 c 128,-1,7
 140 566 140 566 140 532 c 256,8,9
 140 498 140 498 153 476 c 128,-1,10
 166 454 166 454 187.5 438.5 c 128,-1,11
 209 423 209 423 236.5 413 c 128,-1,12
 264 403 264 403 294 393 c 0,13,14
 331 381 331 381 368.5 367 c 128,-1,15
 406 353 406 353 436 330.5 c 128,-1,16
 466 308 466 308 485 273.5 c 128,-1,17
 504 239 504 239 504 186 c 256,18,19
 504 133 504 133 483.5 94.5 c 128,-1,20
 463 56 463 56 430.5 31 c 128,-1,21
 398 6 398 6 356.5 -6 c 128,-1,22
 315 -18 315 -18 273 -18 c 0,23,24
 241 -18 241 -18 209 -11.5 c 128,-1,25
 177 -5 177 -5 148 8 c 128,-1,26
 119 21 119 21 94 41 c 128,-1,27
 69 61 69 61 50 87 c 1,28,-1
 112 133 l 1,29,30
 135 95 135 95 176.5 69.5 c 128,-1,31
 218 44 218 44 274 44 c 0,32,33
 301 44 301 44 329 52.5 c 128,-1,34
 357 61 357 61 379.5 78.5 c 128,-1,35
 402 96 402 96 416.5 121.5 c 128,-1,36
 431 147 431 147 431 181 c 0,37,38
 431 218 431 218 416.5 242.5 c 128,-1,39
 402 267 402 267 378 283.5 c 128,-1,40
 354 300 354 300 323 311 c 128,-1,41
 292 322 292 322 258 333 c 0,42,43
 223 344 223 344 189 358 c 128,-1,44
 155 372 155 372 128 394.5 c 128,-1,45
 101 417 101 417 84.5 450 c 128,-1,46
 68 483 68 483 68 531 c 0,47,48
 68 582 68 582 88.5 619 c 128,-1,49
 109 656 109 656 142 680 c 128,-1,50
 175 704 175 704 215 715 c 128,-1,51
 255 726 255 726 294 726 c 0,52,53
 366 726 366 726 417 700.5 c 128,-1,54
 468 675 468 675 494 640 c 1,55,-1
 437 594 l 1,0,1
EndSplineSet
Validated: 1
EndChar

StartChar: T
Encoding: 84 84 35
Width: 570
GlyphClass: 2
Flags: W
LayerCount: 2
Fore
SplineSet
321 0 m 1,0,-1
 249 0 l 1,1,-1
 249 644 l 1,2,-1
 12 644 l 1,3,-1
 12 708 l 1,4,-1
 558 708 l 1,5,-1
 558 644 l 1,6,-1
 321 644 l 1,7,-1
 321 0 l 1,0,-1
EndSplineSet
Validated: 1
EndChar

StartChar: U
Encoding: 85 85 36
Width: 710
GlyphClass: 2
Flags: W
LayerCount: 2
Fore
SplineSet
355 -18 m 0,0,1
 275 -18 275 -18 224 9.5 c 128,-1,2
 173 37 173 37 143 79 c 128,-1,3
 113 121 113 121 101.5 170.5 c 128,-1,4
 90 220 90 220 90 264 c 2,5,-1
 90 708 l 1,6,-1
 162 708 l 1,7,-1
 162 272 l 2,8,9
 162 229 162 229 172 188.5 c 128,-1,10
 182 148 182 148 204.5 116.5 c 128,-1,11
 227 85 227 85 264 65.5 c 128,-1,12
 301 46 301 46 355 46 c 256,13,14
 409 46 409 46 446 65.5 c 128,-1,15
 483 85 483 85 505.5 116.5 c 128,-1,16
 528 148 528 148 538 188.5 c 128,-1,17
 548 229 548 229 548 272 c 2,18,-1
 548 708 l 1,19,-1
 620 708 l 1,20,-1
 620 264 l 2,21,22
 620 220 620 220 608.5 170.5 c 128,-1,23
 597 121 597 121 567 79 c 128,-1,24
 537 37 537 37 485.5 9.5 c 128,-1,25
 434 -18 434 -18 355 -18 c 0,0,1
EndSplineSet
Validated: 1
EndChar

StartChar: V
Encoding: 86 86 37
Width: 623
GlyphClass: 2
Flags: W
LayerCount: 2
Fore
SplineSet
311 93 m 1,0,-1
 313 93 l 1,1,-1
 543 708 l 1,2,-1
 620 708 l 1,3,-1
 349 0 l 1,4,-1
 273 0 l 1,5,-1
 3 708 l 1,6,-1
 81 708 l 1,7,-1
 311 93 l 1,0,-1
EndSplineSet
Validated: 1
EndChar

StartChar: W
Encoding: 87 87 38
Width: 972
GlyphClass: 2
Flags: W
LayerCount: 2
Fore
SplineSet
265 99 m 1,0,-1
 267 99 l 1,1,-1
 444 708 l 1,2,-1
 530 708 l 1,3,-1
 707 99 l 1,4,-1
 709 99 l 1,5,-1
 882 708 l 1,6,-1
 958 708 l 1,7,-1
 749 0 l 1,8,-1
 665 0 l 1,9,-1
 487 608 l 1,10,-1
 485 608 l 1,11,-1
 307 0 l 1,12,-1
 223 0 l 1,13,-1
 14 708 l 1,14,-1
 90 708 l 1,15,-1
 265 99 l 1,0,-1
EndSplineSet
Validated: 1
EndChar

StartChar: X
Encoding: 88 88 39
Width: 649
GlyphClass: 2
Flags: W
LayerCount: 2
Fore
SplineSet
326 422 m 1,0,-1
 519 708 l 1,1,-1
 605 708 l 1,2,-1
 370 371 l 1,3,-1
 630 0 l 1,4,-1
 540 0 l 1,5,-1
 324 319 l 1,6,-1
 109 0 l 1,7,-1
 19 0 l 1,8,-1
 279 372 l 1,9,-1
 42 708 l 1,10,-1
 132 708 l 1,11,-1
 326 422 l 1,0,-1
EndSplineSet
Validated: 1
EndChar

StartChar: Y
Encoding: 89 89 40
Width: 602
GlyphClass: 2
Flags: W
LayerCount: 2
Fore
SplineSet
337 0 m 1,0,-1
 265 0 l 1,1,-1
 265 305 l 1,2,-1
 0 708 l 1,3,-1
 90 708 l 1,4,-1
 303 365 l 1,5,-1
 518 708 l 1,6,-1
 602 708 l 1,7,-1
 337 305 l 1,8,-1
 337 0 l 1,0,-1
EndSplineSet
Validated: 1
EndChar

StartChar: Z
Encoding: 90 90 41
Width: 572
GlyphClass: 2
Flags: W
LayerCount: 2
Fore
SplineSet
535 648 m 1,0,-1
 122 64 l 1,1,-1
 541 64 l 1,2,-1
 541 0 l 1,3,-1
 31 0 l 1,4,-1
 31 60 l 1,5,-1
 445 644 l 1,6,-1
 42 644 l 1,7,-1
 42 708 l 1,8,-1
 535 708 l 1,9,-1
 535 648 l 1,0,-1
EndSplineSet
Validated: 1
EndChar
